<svg xmlns="http://www.w3.org/2000/svg" xmlns:xlink="http://www.w3.org/1999/xlink" width="500" zoomAndPan="magnify" viewBox="0 0 375 149.999998" height="200" preserveAspectRatio="xMidYMid meet" version="1.0"><defs><g/><clipPath id="7cf0fb0cfa"><path d="M 240.277344 7.640625 L 375 7.640625 L 375 142.640625 L 240.277344 142.640625 Z M 240.277344 7.640625 " clip-rule="nonzero"/></clipPath><clipPath id="c1d8618ded"><rect x="0" width="218" y="0" height="77"/></clipPath></defs><g clip-path="url(#7cf0fb0cfa)"><path fill="#eee400" d="M 343.742188 132.054688 C 331.964844 132.054688 324.347656 126.4375 320.636719 119.09375 L 330.964844 113.113281 C 333.683594 117.554688 337.214844 120.816406 343.46875 120.816406 C 348.722656 120.816406 352.074219 118.1875 352.074219 114.5625 C 352.074219 109.109375 344.796875 106.976562 339.664062 104.777344 C 330.511719 100.878906 324.433594 95.984375 324.433594 85.652344 C 324.433594 76.140625 331.683594 68.894531 343.019531 68.894531 C 351.078125 68.894531 356.882812 71.703125 361.046875 79.039062 L 351.171875 85.382812 C 348.996094 81.488281 346.640625 79.949219 343.015625 79.949219 C 339.296875 79.949219 336.941406 82.304688 336.941406 85.382812 C 336.941406 89.191406 339.296875 90.730469 344.734375 93.085938 C 356.136719 97.96875 364.761719 101.8125 364.761719 114.378906 C 364.765625 125.804688 355.796875 132.054688 343.742188 132.054688 Z M 314.527344 112.933594 C 314.527344 126.074219 306.433594 133.023438 295.195312 133.023438 C 285.042969 133.023438 278.964844 129.140625 275.972656 122.390625 L 275.796875 122.390625 L 286.117188 115.175781 C 288.109375 118.703125 289.90625 121.210938 294.25 121.210938 C 298.421875 121.210938 301.027344 119.097656 301.027344 112.757812 L 301.027344 68.390625 L 314.527344 68.390625 Z M 240.277344 142.640625 L 375.277344 142.640625 L 375.277344 7.640625 L 240.277344 7.640625 Z M 240.277344 142.640625 " fill-opacity="1" fill-rule="evenodd"/></g><g transform="matrix(1, 0, 0, 1, 0, 70)"><g clip-path="url(#c1d8618ded)"><g fill="#ffffff" fill-opacity="1"><g transform="translate(0.000003125, 55.547628)"><g><path d="M 4.125 -0.5625 C 5.09375 -0.5625 5.925781 -0.910156 6.625 -1.609375 C 7.320312 -2.304688 7.691406 -3.144531 7.734375 -4.125 L 7.734375 -35.703125 C 7.617188 -36.609375 7.222656 -37.367188 6.546875 -37.984375 C 5.867188 -38.609375 5.0625 -38.921875 4.125 -38.921875 L 3.4375 -38.921875 L 3.390625 -39.484375 L 19.90625 -39.484375 C 21.070312 -39.484375 22.34375 -39.59375 23.71875 -39.8125 C 25.09375 -40.039062 26.0625 -40.269531 26.625 -40.5 L 26.625 -33.390625 L 26.0625 -33.390625 L 26.0625 -34.40625 C 26.0625 -35.3125 25.75 -36.082031 25.125 -36.71875 C 24.507812 -37.351562 23.769531 -37.691406 22.90625 -37.734375 L 11.390625 -37.734375 L 11.390625 -20.3125 L 20.921875 -20.3125 C 21.679688 -20.34375 22.320312 -20.617188 22.84375 -21.140625 C 23.375 -21.671875 23.640625 -22.332031 23.640625 -23.125 L 23.640625 -23.921875 L 24.203125 -23.921875 L 24.203125 -15 L 23.640625 -15 L 23.640625 -15.84375 C 23.640625 -16.601562 23.382812 -17.242188 22.875 -17.765625 C 22.363281 -18.296875 21.734375 -18.578125 20.984375 -18.609375 L 11.390625 -18.609375 L 11.390625 -1.75 L 19.453125 -1.75 C 22.242188 -1.75 24.367188 -2.367188 25.828125 -3.609375 C 27.296875 -4.847656 28.519531 -6.691406 29.5 -9.140625 L 30.0625 -9.140625 L 26.796875 0 L 3.390625 0 L 3.390625 -0.5625 Z M 4.125 -0.5625 "/></g></g></g><g fill="#ffffff" fill-opacity="1"><g transform="translate(32.54104, 55.547628)"><g><path d="M 36 0 L 22.625 0 L 22.625 -0.5625 L 23.296875 -0.5625 C 24.054688 -0.5625 24.613281 -0.816406 24.96875 -1.328125 C 25.320312 -1.835938 25.5 -2.25 25.5 -2.5625 C 25.5 -2.882812 25.40625 -3.210938 25.21875 -3.546875 L 17.4375 -14.71875 L 9.203125 -3.609375 C 8.941406 -3.273438 8.8125 -2.9375 8.8125 -2.59375 C 8.8125 -2.257812 8.988281 -1.835938 9.34375 -1.328125 C 9.695312 -0.816406 10.269531 -0.5625 11.0625 -0.5625 L 11.734375 -0.5625 L 11.734375 0 L -0.5625 0 L -0.5625 -0.5625 L 0.171875 -0.5625 C 2.203125 -0.5625 3.988281 -1.484375 5.53125 -3.328125 L 16.03125 -16.75 L 6.5 -30.453125 C 5.925781 -31.242188 5.140625 -31.910156 4.140625 -32.453125 C 3.148438 -33.003906 2.128906 -33.28125 1.078125 -33.28125 L 0.34375 -33.28125 L 0.34375 -33.84375 L 13.59375 -33.84375 L 13.59375 -33.28125 L 12.921875 -33.28125 C 12.171875 -33.28125 11.613281 -33.023438 11.25 -32.515625 C 10.894531 -32.003906 10.71875 -31.585938 10.71875 -31.265625 C 10.71875 -30.953125 10.832031 -30.628906 11.0625 -30.296875 L 18.21875 -20.03125 L 25.046875 -30.296875 C 25.273438 -30.585938 25.390625 -30.898438 25.390625 -31.234375 C 25.390625 -31.578125 25.207031 -32.003906 24.84375 -32.515625 C 24.488281 -33.023438 23.9375 -33.28125 23.1875 -33.28125 L 22.515625 -33.28125 L 22.515625 -33.84375 L 35.03125 -33.84375 L 35.03125 -33.28125 L 34.25 -33.28125 C 33.195312 -33.28125 32.1875 -33.003906 31.21875 -32.453125 C 30.257812 -31.910156 29.460938 -31.226562 28.828125 -30.40625 L 19.75 -17.765625 L 29.84375 -3.328125 C 30.675781 -2.234375 31.609375 -1.5 32.640625 -1.125 C 33.671875 -0.75 34.546875 -0.5625 35.265625 -0.5625 L 36 -0.5625 Z M 36 0 "/></g></g></g><g fill="#ffffff" fill-opacity="1"><g transform="translate(67.845532, 55.547628)"><g><path d="M 12.921875 -16.015625 C 13.785156 -15.796875 14.570312 -15.6875 15.28125 -15.6875 C 16 -15.6875 16.582031 -15.703125 17.03125 -15.734375 C 17.488281 -15.773438 18.128906 -15.898438 18.953125 -16.109375 C 19.773438 -16.316406 20.523438 -16.644531 21.203125 -17.09375 C 22.785156 -18.070312 23.953125 -19.613281 24.703125 -21.71875 C 24.960938 -22.46875 25.09375 -23.484375 25.09375 -24.765625 C 25.09375 -27.054688 24.300781 -28.859375 22.71875 -30.171875 C 21.144531 -31.492188 18.96875 -32.15625 16.1875 -32.15625 L 10.71875 -32.15625 L 10.71875 -3.609375 C 10.757812 -2.410156 11.304688 -1.523438 12.359375 -0.953125 C 12.847656 -0.691406 13.390625 -0.5625 13.984375 -0.5625 L 14.78125 -0.5625 L 14.78125 0 L 3.109375 0 L 3.109375 -0.5625 L 3.890625 -0.5625 C 4.796875 -0.5625 5.554688 -0.851562 6.171875 -1.4375 C 6.796875 -2.019531 7.125 -2.722656 7.15625 -3.546875 L 7.15625 -30.296875 C 7.125 -31.160156 6.796875 -31.875 6.171875 -32.4375 C 5.554688 -33 4.796875 -33.28125 3.890625 -33.28125 L 3.109375 -33.28125 L 3.109375 -33.84375 L 16.296875 -33.84375 C 20.242188 -33.84375 23.375 -32.976562 25.6875 -31.25 C 28 -29.519531 29.15625 -27.1875 29.15625 -24.25 C 29.15625 -22.144531 28.671875 -20.304688 27.703125 -18.734375 C 25.773438 -15.648438 22.800781 -14.109375 18.78125 -14.109375 C 16.789062 -14.109375 14.835938 -14.554688 12.921875 -15.453125 Z M 12.921875 -16.015625 "/></g></g></g><g fill="#ffffff" fill-opacity="1"><g transform="translate(99.033038, 55.547628)"><g><path d="M 13.65625 -32.09375 L 10.65625 -32.09375 L 10.65625 -3.609375 C 10.695312 -2.441406 11.222656 -1.554688 12.234375 -0.953125 C 12.722656 -0.691406 13.269531 -0.5625 13.875 -0.5625 L 14.609375 -0.5625 L 14.671875 0 L 3.109375 0 L 3.109375 -0.5625 L 3.890625 -0.5625 C 4.753906 -0.5625 5.492188 -0.851562 6.109375 -1.4375 C 6.734375 -2.019531 7.046875 -2.722656 7.046875 -3.546875 L 7.046875 -30.34375 C 7.046875 -31.175781 6.734375 -31.875 6.109375 -32.4375 C 5.492188 -33 4.753906 -33.28125 3.890625 -33.28125 L 3.109375 -33.28125 L 3.109375 -33.84375 L 17.265625 -33.84375 C 20.796875 -33.84375 23.582031 -33.035156 25.625 -31.421875 C 27.675781 -29.804688 28.703125 -27.679688 28.703125 -25.046875 C 28.703125 -22.410156 27.875 -20.207031 26.21875 -18.4375 C 24.570312 -16.675781 22.46875 -15.664062 19.90625 -15.40625 C 21.113281 -14.875 22.5625 -13.40625 24.25 -11 C 24.21875 -11 24.867188 -10.171875 26.203125 -8.515625 C 27.535156 -6.859375 28.601562 -5.566406 29.40625 -4.640625 C 30.21875 -3.722656 30.890625 -3.019531 31.421875 -2.53125 C 32.804688 -1.21875 34.40625 -0.5625 36.21875 -0.5625 L 36.21875 0 L 34.46875 0 C 31.5 0 29.164062 -0.582031 27.46875 -1.75 C 26.1875 -2.613281 25.019531 -3.6875 23.96875 -4.96875 C 23.75 -5.269531 22.800781 -6.59375 21.125 -8.9375 C 19.445312 -11.289062 18.550781 -12.539062 18.4375 -12.6875 C 16.414062 -15.207031 14.519531 -16.46875 12.75 -16.46875 L 12.75 -17.03125 C 17.144531 -17.03125 19.796875 -17.257812 20.703125 -17.71875 C 21.941406 -18.351562 22.785156 -19.03125 23.234375 -19.75 C 24.179688 -21.25 24.65625 -22.898438 24.65625 -24.703125 C 24.65625 -26.992188 23.976562 -28.757812 22.625 -30 C 21.269531 -31.25 19.441406 -31.925781 17.140625 -32.03125 C 16.128906 -32.070312 14.96875 -32.09375 13.65625 -32.09375 Z M 13.65625 -32.09375 "/></g></g></g><g fill="#ffffff" fill-opacity="1"><g transform="translate(134.393926, 55.547628)"><g><path d="M 3.890625 -0.5625 C 4.796875 -0.5625 5.554688 -0.851562 6.171875 -1.4375 C 6.796875 -2.019531 7.125 -2.722656 7.15625 -3.546875 L 7.15625 -30.34375 C 7.15625 -31.175781 6.835938 -31.875 6.203125 -32.4375 C 5.566406 -33 4.796875 -33.28125 3.890625 -33.28125 L 3.109375 -33.28125 L 3.109375 -33.84375 L 19.578125 -33.84375 C 21.117188 -33.84375 22.472656 -33.953125 23.640625 -34.171875 C 24.804688 -34.398438 25.554688 -34.59375 25.890625 -34.75 L 25.890625 -28.3125 L 25.265625 -28.375 L 25.265625 -29.21875 C 25.265625 -30.007812 25 -30.6875 24.46875 -31.25 C 23.945312 -31.8125 23.273438 -32.09375 22.453125 -32.09375 L 10.71875 -32.09375 L 10.71875 -17.765625 L 20.359375 -17.765625 C 21.109375 -17.765625 21.679688 -17.988281 22.078125 -18.4375 C 22.472656 -18.894531 22.671875 -19.460938 22.671875 -20.140625 L 22.671875 -20.875 L 23.296875 -20.875 L 23.296875 -12.96875 L 22.671875 -12.96875 L 22.671875 -13.703125 C 22.671875 -14.753906 22.273438 -15.46875 21.484375 -15.84375 C 21.191406 -15.957031 20.875 -16.035156 20.53125 -16.078125 L 10.71875 -16.078125 L 10.71875 -1.75 L 19.578125 -1.75 C 21.304688 -1.75 22.757812 -2.046875 23.9375 -2.640625 C 25.125 -3.242188 26.023438 -3.957031 26.640625 -4.78125 C 27.265625 -5.613281 27.898438 -6.707031 28.546875 -8.0625 L 29.109375 -8.0625 L 26 0 L 3.109375 0 L 3.109375 -0.5625 Z M 3.890625 -0.5625 "/></g></g></g><g fill="#ffffff" fill-opacity="1"><g transform="translate(165.186654, 55.547628)"><g><path d="M 3.265625 -1.859375 C 3.160156 -2.304688 3.109375 -3.226562 3.109375 -4.625 C 3.109375 -6.019531 3.347656 -7.429688 3.828125 -8.859375 L 4.515625 -8.859375 C 4.472656 -8.515625 4.453125 -8.175781 4.453125 -7.84375 C 4.453125 -5.8125 5.117188 -4.144531 6.453125 -2.84375 C 7.796875 -1.550781 9.648438 -0.90625 12.015625 -0.90625 C 14.492188 -0.90625 16.425781 -1.476562 17.8125 -2.625 C 19.207031 -3.769531 19.90625 -5.253906 19.90625 -7.078125 C 19.90625 -8.898438 19.226562 -10.414062 17.875 -11.625 L 6.59375 -20.3125 C 4.789062 -21.851562 3.890625 -23.921875 3.890625 -26.515625 C 3.890625 -27.972656 4.289062 -29.320312 5.09375 -30.5625 C 5.90625 -31.8125 7.035156 -32.800781 8.484375 -33.53125 C 9.929688 -34.269531 11.632812 -34.640625 13.59375 -34.640625 C 15.550781 -34.640625 17.28125 -34.46875 18.78125 -34.125 L 20.640625 -34.125 L 20.75 -27.984375 L 20.140625 -27.984375 C 20.140625 -29.554688 19.59375 -30.773438 18.5 -31.640625 C 17.40625 -32.503906 15.84375 -32.9375 13.8125 -32.9375 C 11.789062 -32.9375 10.117188 -32.421875 8.796875 -31.390625 C 7.484375 -30.359375 6.828125 -29.023438 6.828125 -27.390625 C 6.828125 -25.753906 7.5625 -24.332031 9.03125 -23.125 L 20.421875 -14.328125 C 22.148438 -12.898438 23.015625 -10.90625 23.015625 -8.34375 C 23.015625 -5.789062 22.046875 -3.628906 20.109375 -1.859375 C 18.171875 -0.0859375 15.8125 0.796875 13.03125 0.796875 C 11.1875 0.796875 9.34375 0.566406 7.5 0.109375 C 5.65625 -0.335938 4.242188 -0.992188 3.265625 -1.859375 Z M 3.265625 -1.859375 "/></g></g></g><g fill="#ffffff" fill-opacity="1"><g transform="translate(191.242041, 55.547628)"><g><path d="M 3.265625 -1.859375 C 3.160156 -2.304688 3.109375 -3.226562 3.109375 -4.625 C 3.109375 -6.019531 3.347656 -7.429688 3.828125 -8.859375 L 4.515625 -8.859375 C 4.472656 -8.515625 4.453125 -8.175781 4.453125 -7.84375 C 4.453125 -5.8125 5.117188 -4.144531 6.453125 -2.84375 C 7.796875 -1.550781 9.648438 -0.90625 12.015625 -0.90625 C 14.492188 -0.90625 16.425781 -1.476562 17.8125 -2.625 C 19.207031 -3.769531 19.90625 -5.253906 19.90625 -7.078125 C 19.90625 -8.898438 19.226562 -10.414062 17.875 -11.625 L 6.59375 -20.3125 C 4.789062 -21.851562 3.890625 -23.921875 3.890625 -26.515625 C 3.890625 -27.972656 4.289062 -29.320312 5.09375 -30.5625 C 5.90625 -31.8125 7.035156 -32.800781 8.484375 -33.53125 C 9.929688 -34.269531 11.632812 -34.640625 13.59375 -34.640625 C 15.550781 -34.640625 17.28125 -34.46875 18.78125 -34.125 L 20.640625 -34.125 L 20.75 -27.984375 L 20.140625 -27.984375 C 20.140625 -29.554688 19.59375 -30.773438 18.5 -31.640625 C 17.40625 -32.503906 15.84375 -32.9375 13.8125 -32.9375 C 11.789062 -32.9375 10.117188 -32.421875 8.796875 -31.390625 C 7.484375 -30.359375 6.828125 -29.023438 6.828125 -27.390625 C 6.828125 -25.753906 7.5625 -24.332031 9.03125 -23.125 L 20.421875 -14.328125 C 22.148438 -12.898438 23.015625 -10.90625 23.015625 -8.34375 C 23.015625 -5.789062 22.046875 -3.628906 20.109375 -1.859375 C 18.171875 -0.0859375 15.8125 0.796875 13.03125 0.796875 C 11.1875 0.796875 9.34375 0.566406 7.5 0.109375 C 5.65625 -0.335938 4.242188 -0.992188 3.265625 -1.859375 Z M 3.265625 -1.859375 "/></g></g></g></g></g></svg>